{"title":"Threshold.S01.720p.HDTV.x264.HUN.ENG-aljasPOD","uid":7491083,"size":20350838207,"categoryP":"video","categoryS":"hd___tv_shows","magnet":"?xt=urn:btih:de2044853fe2ccf9c615fd57f97821f76853b442&amp;dn=Threshold.S01.720p.HDTV.x264.HUN.ENG-aljasPOD&amp;tr=udp%3A%2F%2Ftracker.openbittorrent.com%3A80&amp;tr=udp%3A%2F%2Fopen.demonii.com%3A1337&amp;tr=udp%3A%2F%2Ftracker.coppersurfer.tk%3A6969&amp;tr=udp%3A%2F%2Fexodus.desync.com%3A6969","seeders":0,"leechers":3,"uploader":"l214l","files":14,"time":1343745506,"description":"Video\nID                             : 1\nFormat                         : AVC\nFormat/Info                    : Advanced Video Codec\nFormat profile                 : &lt;a class=&quot;__cf_email__&quot; href=&quot;/cdn-cgi/l/email-protection&quot; data-cfemail=&quot;dc94b5bbb49c90e9f2ed&quot;&gt;[email&amp;#160;protected]&lt;/a&gt;&lt;script cf-hash='f9e31' type=&quot;text/javascript&quot;&gt;\n/* &lt;![CDATA[ */!function(){try{var t=&quot;currentScript&quot;in document?document.currentScript:function(){for(var t=document.getElementsByTagName(&quot;script&quot;),e=t.length;e--;)if(t[e].getAttribute(&quot;cf-hash&quot;))return t[e]}();if(t&amp;&amp;t.previousSibling){var e,r,n,i,c=t.previousSibling,a=c.getAttribute(&quot;data-cfemail&quot;);if(a){for(e=&quot;&quot;,r=parseInt(a.substr(0,2),16),n=2;a.length-n;n+=2)i=parseInt(a.substr(n,2),16)^r,e+=String.fromCharCode(i);e=document.createTextNode(e),c.parentNode.replaceChild(e,c)}}}catch(u){}}();/* ]]&gt; */&lt;/script&gt;\nFormat settings, CABAC         : Yes\nFormat settings, ReFrames      : 16 frames\nCodec ID                       : V_MPEG4/ISO/AVC\nDuration                       : 40mn 40s\nBit rate                       : 4 488 Kbps\nWidth                          : 1 280 pixels\nHeight                         : 704 pixels\nDisplay aspect ratio           : 16:9\nFrame rate                     : 25.000 fps\nColor space                    : YUV\nChroma subsampling             : 4:2:0\nBit depth                      : 8 bits\nScan type                      : Progressive\nBits/(Pixel*Frame)             : 0.199\nStream size                    : 1.25 GiB (86%)\nWriting library                : x264 core 59 r859M ce13bb6\nEncoding settings              : cabac=1 / ref=16 / deblock=1:-2:-1 / \n                                 analyse=0x3:0x113 / me=esa / subme=7 / \n                                 me-prepass=0 / brdo=1 / mixed_ref=1 / me_range=16 \n                                 / chroma_me=1 / trellis=2 / 8x8dct=1 / cqm=0 / \n                                 deadzone=21,11 / chroma_qp_offset=0 / threads=6 / \n                                 nr=0 / decimate=0 / mbaff=0 / fgo=0 / bframes=16 \n                                 / b_pyramid=1 / b_adapt=1 / b_bias=0 / direct=3 / \n                                 wpredb=1 / bime=1 / keyint=250 / keyint_min=25 / \n                                 scenecut=40(pre) / rc=2pass / bitrate=4488 / \n                                 ratetol=1.0 / rceq='blurCplx^(1-qComp)' / \n                                 qcomp=1.00 / qpmin=10 / qpmax=51 / qpstep=4 / \n                                 cplxblur=20.0 / qblur=0.5 / ip_ratio=1.40 / \n                                 pb_ratio=1.30 / aq=2:1.00\nLanguage                       : English\nDefault                        : Yes\nForced                         : No\n\nAudio #1\nID                             : 2\nFormat                         : AC-3\nFormat/Info                    : Audio Coding 3\nMode extension                 : CM (complete main)\nFormat settings, Endianness    : Big\nCodec ID                       : A_AC3\nDuration                       : 40mn 40s\nBit rate mode                  : Constant\nBit rate                       : 192 Kbps\nChannel(s)                     : 2 channels\nChannel positions              : Front: L R\nSampling rate                  : 48.0 KHz\nBit depth                      : 16 bits\nCompression mode               : Lossy\nStream size                    : 55.8 MiB (4%)\nLanguage                       : Hungarian\nDefault                        : Yes\nForced                         : No\n\nAudio #2\nID                             : 3\nFormat                         : AC-3\nFormat/Info                    : Audio Coding 3\nFormat profile                 : Dolby Digital\nMode extension                 : CM (complete main)\nFormat settings, Endianness    : Big\nCodec ID                       : A_AC3\nDuration                       : 40mn 40s\nBit rate mode                  : Constant\nBit rate                       : 448 Kbps\nChannel(s)                     : 2 channels\nChannel positions              : Front: L R\nSampling rate                  : 48.0 KHz\nBit depth                      : 16 bits\nCompression mode               : Lossy\nStream size                    : 130 MiB (9%)\nLanguage                       : English\nDefault                        : No\nForced                         : No","torrent":{"xt":"urn:btih:de2044853fe2ccf9c615fd57f97821f76853b442","amp;dn":"Threshold.S01.720p.HDTV.x264.HUN.ENG-aljasPOD","amp;tr":["udp%3A%2F%2Ftracker.openbittorrent.com%3A80","udp%3A%2F%2Fopen.demonii.com%3A1337","udp%3A%2F%2Ftracker.coppersurfer.tk%3A6969","udp%3A%2F%2Fexodus.desync.com%3A6969"],"infoHash":"de2044853fe2ccf9c615fd57f97821f76853b442","infoHashBuffer":{"type":"Buffer","data":[222,32,68,133,63,226,204,249,198,21,253,87,249,120,33,247,104,83,180,66]},"announce":[],"urlList":[]}}